<svg width="248" height="20" viewBox="0 0 248 20" fill="white" xmlns="http://www.w3.org/2000/svg">
<path d="M135.596 12.6646H140.202V14.3215H133.847V3.68053H140.034V5.32228H135.596V8.08893H139.639V9.70028H135.596V12.6646Z" fill="white"/>
<path d="M148.713 14.5191C147.102 14.5191 145.764 13.9972 144.7 12.9534C143.636 11.8994 143.104 10.582 143.104 9.00102C143.104 7.42007 143.636 6.10768 144.7 5.06386C145.764 4.00989 147.102 3.48291 148.713 3.48291C150.325 3.48291 151.663 4.00989 152.727 5.06386C153.791 6.10768 154.323 7.42007 154.323 9.00102C154.323 10.0347 154.08 10.9772 153.593 11.8285C153.117 12.6696 152.448 13.3283 151.587 13.8047C150.735 14.281 149.778 14.5191 148.713 14.5191ZM145.977 11.7525C146.707 12.4821 147.619 12.847 148.713 12.847C149.818 12.847 150.73 12.4821 151.45 11.7525C152.179 11.0127 152.544 10.0955 152.544 9.00102C152.544 7.90652 152.179 6.99443 151.45 6.26477C150.73 5.52496 149.818 5.15506 148.713 5.15506C147.619 5.15506 146.707 5.52496 145.977 6.26477C145.248 6.99443 144.883 7.90652 144.883 9.00102C144.883 10.0955 145.248 11.0127 145.977 11.7525Z" fill="white"/>
<path d="M161.348 14.4887C160.548 14.4887 159.844 14.3468 159.235 14.0631C158.638 13.7793 158.171 13.374 157.837 12.847C157.503 12.3099 157.335 11.6866 157.335 10.9772H159.099C159.099 11.5447 159.306 11.9957 159.722 12.3301C160.148 12.6544 160.685 12.8166 161.333 12.8166C161.921 12.8166 162.418 12.6747 162.823 12.3909C163.228 12.097 163.431 11.717 163.431 11.2508C163.431 11.0785 163.401 10.9215 163.34 10.7796C163.289 10.6377 163.198 10.5161 163.066 10.4147C162.945 10.3134 162.823 10.2273 162.701 10.1563C162.59 10.0752 162.418 9.99924 162.185 9.9283C161.962 9.85736 161.779 9.80669 161.637 9.77629C161.495 9.73575 161.283 9.68001 160.999 9.60907C160.685 9.53813 160.447 9.48239 160.284 9.44186C160.122 9.39119 159.894 9.32025 159.6 9.22904C159.317 9.12769 159.094 9.03142 158.931 8.94021C158.779 8.849 158.597 8.72739 158.384 8.57538C158.171 8.41323 158.009 8.24601 157.898 8.07373C157.796 7.89131 157.705 7.67343 157.624 7.42007C157.543 7.16671 157.502 6.88296 157.502 6.56879C157.502 5.61617 157.837 4.8713 158.506 4.33419C159.185 3.79707 160.092 3.52851 161.227 3.52851C162.382 3.52851 163.284 3.82241 163.933 4.4102C164.581 4.98785 164.906 5.77832 164.906 6.78161H163.173C163.173 6.2749 162.985 5.87966 162.61 5.5959C162.245 5.30201 161.774 5.15506 161.196 5.15506C160.639 5.15506 160.173 5.27667 159.798 5.5199C159.433 5.75298 159.251 6.08235 159.251 6.50799C159.251 6.6904 159.296 6.85762 159.387 7.00963C159.479 7.16165 159.585 7.28833 159.707 7.38967C159.828 7.48088 160.011 7.57209 160.254 7.66329C160.497 7.7545 160.7 7.82544 160.862 7.87611C161.034 7.91665 161.283 7.97746 161.607 8.05853C161.86 8.11934 162.048 8.16494 162.169 8.19534C162.301 8.22575 162.489 8.28148 162.732 8.36256C162.975 8.4335 163.162 8.49937 163.294 8.56018C163.426 8.61085 163.593 8.68685 163.796 8.7882C163.999 8.88954 164.156 8.99088 164.267 9.09222C164.379 9.19357 164.5 9.32025 164.632 9.47226C164.774 9.62427 164.88 9.78642 164.951 9.9587C165.022 10.1209 165.083 10.3134 165.134 10.5364C165.184 10.7492 165.21 10.9772 165.21 11.2204C165.21 12.2541 164.845 13.0598 164.115 13.6374C163.385 14.205 162.463 14.4887 161.348 14.4887Z" fill="white"/>
<path d="M178.167 3.68053C179.728 3.68053 181.015 4.18217 182.028 5.18547C183.052 6.18876 183.564 7.46061 183.564 9.00102C183.564 10.5414 183.052 11.8133 182.028 12.8166C181.015 13.8199 179.728 14.3215 178.167 14.3215H174.413V3.68053H178.167ZM178.122 12.695C179.186 12.695 180.057 12.3504 180.736 11.6613C181.425 10.962 181.77 10.0752 181.77 9.00102C181.77 8.4639 181.679 7.96732 181.496 7.51128C181.324 7.05524 181.076 6.66507 180.751 6.34077C180.437 6.01648 180.052 5.76312 179.596 5.5807C179.14 5.39829 178.649 5.30708 178.122 5.30708H176.161V12.695H178.122Z" fill="white"/>
<path d="M189.026 12.6646H193.632V14.3215H187.278V3.68053H193.465V5.32228H189.026V8.08893H193.07V9.70028H189.026V12.6646Z" fill="white"/>
<path d="M204.359 3.68053V5.30708H201.228V14.3215H199.495V5.30708H196.363V3.68053H204.359Z" fill="white"/>
<path d="M213.759 14.3215L211.479 10.3843H209.457V14.3215H207.709V3.68053H211.859C212.528 3.68053 213.136 3.82241 213.683 4.10617C214.23 4.38993 214.656 4.79023 214.96 5.30708C215.274 5.82392 215.431 6.40158 215.431 7.04004C215.431 7.75957 215.234 8.39803 214.838 8.95541C214.443 9.50266 213.916 9.8979 213.257 10.1411L215.72 14.3215H213.759ZM209.457 5.32228V8.74259H211.752C212.036 8.74259 212.295 8.70206 212.528 8.62098C212.771 8.53991 212.974 8.42336 213.136 8.27135C213.298 8.11934 213.425 7.93692 213.516 7.7241C213.607 7.51128 213.653 7.27819 213.653 7.02484C213.653 6.52826 213.475 6.12289 213.121 5.80872C212.776 5.48443 212.32 5.32228 211.752 5.32228H209.457Z" fill="white"/>
<path d="M224.178 14.5191C222.567 14.5191 221.229 13.9972 220.165 12.9534C219.101 11.8994 218.569 10.582 218.569 9.00102C218.569 7.42007 219.101 6.10768 220.165 5.06386C221.229 4.00989 222.567 3.48291 224.178 3.48291C225.79 3.48291 227.127 4.00989 228.191 5.06386C229.256 6.10768 229.788 7.42007 229.788 9.00102C229.788 10.0347 229.544 10.9772 229.058 11.8285C228.582 12.6696 227.913 13.3283 227.051 13.8047C226.2 14.281 225.242 14.5191 224.178 14.5191ZM221.442 11.7525C222.172 12.4821 223.084 12.847 224.178 12.847C225.283 12.847 226.195 12.4821 226.915 11.7525C227.644 11.0127 228.009 10.0955 228.009 9.00102C228.009 7.90652 227.644 6.99443 226.915 6.26477C226.195 5.52496 225.283 5.15506 224.178 5.15506C223.084 5.15506 222.172 5.52496 221.442 6.26477C220.712 6.99443 220.348 7.90652 220.348 9.00102C220.348 10.0955 220.712 11.0127 221.442 11.7525Z" fill="white"/>
<path d="M233.484 14.3215V3.68053H235.232V14.3215H233.484Z" fill="white"/>
<path d="M246.572 3.68053V5.30708H243.441V14.3215H241.708V5.30708H238.576V3.68053H246.572Z" fill="white"/>
<path d="M5.21079 5.96074C6.4269 5.96074 7.42512 6.36611 8.20546 7.17685C8.99593 7.97746 9.39117 8.99089 9.39117 10.2171C9.39117 11.4332 8.99593 12.4467 8.20546 13.2574C7.42512 14.0682 6.4269 14.4735 5.21079 14.4735C4.38991 14.4735 3.65011 14.2708 2.99138 13.8655C2.33266 13.4601 1.83101 12.9078 1.48644 12.2085L1.41044 14.3215H1V3.20929H1.48644V8.21055C1.83101 7.51128 2.33266 6.96403 2.99138 6.5688C3.65011 6.16343 4.38991 5.96074 5.21079 5.96074ZM5.19558 14.0023C6.25968 14.0023 7.14136 13.6476 7.84063 12.9382C8.53989 12.2186 8.88952 11.3116 8.88952 10.2171C8.88952 9.12263 8.53989 8.22068 7.84063 7.51128C7.14136 6.79175 6.25968 6.43198 5.19558 6.43198C4.13149 6.43198 3.24474 6.79175 2.53534 7.51128C1.82594 8.23082 1.47124 9.13277 1.47124 10.2171C1.47124 11.2914 1.82594 12.1933 2.53534 12.923C3.24474 13.6425 4.13149 14.0023 5.19558 14.0023Z" fill="white"/>
<path d="M17.4809 13.5006C16.8627 14.1492 16.0216 14.4735 14.9575 14.4735C13.9035 14.4735 13.0624 14.1492 12.4341 13.5006C11.8159 12.852 11.5068 11.9805 11.5068 10.886V6.11275H11.9932V10.8252C11.9932 11.8082 12.2567 12.5835 12.7837 13.151C13.3208 13.7185 14.0454 14.0023 14.9575 14.0023C15.8797 14.0023 16.6043 13.7185 17.1313 13.151C17.6684 12.5835 17.937 11.8082 17.937 10.8252V6.11275H18.4234V10.886C18.4234 11.9805 18.1092 12.852 17.4809 13.5006Z" fill="white"/>
<path d="M21.1423 4.28859V3.43731H21.8568V4.28859H21.1423ZM21.2487 14.3215V6.11275H21.7352V14.3215H21.2487Z" fill="white"/>
<path d="M24.7225 14.3215V3.20929H25.2089V14.3215H24.7225Z" fill="white"/>
<path d="M31.2669 13.8655H32.3006V14.3215H31.2213C30.4612 14.3215 29.8633 14.1036 29.4276 13.6678C28.9918 13.2219 28.7739 12.6088 28.7739 11.8285V6.5536H26.8737V6.12796H28.7739V3.69573H29.2603V6.12796H32.2398V6.5536H29.2603V11.8133C29.2603 12.4619 29.4326 12.9686 29.7772 13.3334C30.1319 13.6881 30.6285 13.8655 31.2669 13.8655Z" fill="white"/>
<path d="M48.513 6.11275H49.0147L46.1112 14.3215H45.7312L42.9341 7.32887L40.1523 14.3215H39.7722L36.96 6.11275H37.4616L39.985 13.4702L42.8277 6.38638H43.0405L45.8984 13.4854L48.513 6.11275Z" fill="white"/>
<path d="M50.788 4.28859V3.43731H51.5025V4.28859H50.788ZM50.8944 14.3215V6.11275H51.3808V14.3215H50.8944Z" fill="white"/>
<path d="M57.4388 13.8655H58.4725V14.3215H57.3932C56.6332 14.3215 56.0352 14.1036 55.5995 13.6678C55.1637 13.2219 54.9458 12.6088 54.9458 11.8285V6.5536H53.0456V6.12796H54.9458V3.69573H55.4323V6.12796H58.4117V6.5536H55.4323V11.8133C55.4323 12.4619 55.6045 12.9686 55.9491 13.3334C56.3038 13.6881 56.8004 13.8655 57.4388 13.8655Z" fill="white"/>
<path d="M63.8814 5.96074C64.8644 5.96074 65.6447 6.2749 66.2224 6.90323C66.8 7.53155 67.0889 8.38283 67.0889 9.45706V14.3215H66.6024V9.54827C66.6024 8.56525 66.3541 7.80011 65.8576 7.25286C65.361 6.69548 64.6719 6.41678 63.7902 6.41678C62.949 6.41678 62.2194 6.72588 61.6012 7.34407C60.983 7.96226 60.6739 8.69699 60.6739 9.54827V14.3215H60.1874V3.20929H60.6739V7.96732C60.9678 7.3694 61.4036 6.88803 61.9812 6.52319C62.5589 6.14823 63.1923 5.96074 63.8814 5.96074Z" fill="white"/>
<path fill-rule="evenodd" clip-rule="evenodd" d="M83.6775 0.0659608C83.6096 -0.00725069 83.499 -0.0212654 83.4151 0.0327071L77.5775 3.78532C77.5186 3.82321 77.483 3.88846 77.483 3.95853V9.99062C77.483 10.0411 77.5015 10.0898 77.535 10.1275L82.761 16.0019C82.7705 16.0127 82.7812 16.0224 82.7928 16.0309L88.1332 19.96C88.2057 20.0133 88.3045 20.0134 88.377 19.9601L93.7109 16.0451C93.7227 16.0364 93.7336 16.0264 93.7433 16.0154L98.9885 10.0799C99.0218 10.0422 99.0401 9.99373 99.0401 9.9435V4.06972C99.0401 3.99972 99.0046 3.93452 98.9457 3.89661L93.0334 0.0883209C92.9493 0.034186 92.8385 0.0482397 92.7707 0.121645L88.255 5.00598L83.6775 0.0659608ZM77.8948 4.64759V9.82945L81.9543 10.8323L77.8948 4.64759ZM78.284 10.3498L82.6422 15.2488L82.225 11.3234L78.284 10.3498ZM83.1099 15.753L87.4149 18.9202L82.7066 11.9586L83.1099 15.753ZM89.1164 18.9065L93.3957 15.7655L93.8641 12.012L89.1164 18.9065ZM93.8759 15.2435L98.2261 10.3208L94.3601 11.3634L93.8759 15.2435ZM98.6283 9.78574V4.76099L94.6407 10.8612L98.6283 9.78574ZM98.5484 4.13055L93.1758 0.669911L94.3125 10.6106L98.5484 4.13055ZM92.7683 0.730884L88.5416 5.30264L93.8963 10.5952L92.7683 0.730884ZM87.9696 5.3038L83.6852 0.680245L82.6778 10.603L87.9696 5.3038ZM83.2784 0.610119L77.975 4.01936L82.2683 10.5601L83.2784 0.610119ZM88.2562 5.59956L93.6716 10.9522H82.9111L88.2562 5.59956ZM82.8016 11.364L88.2564 19.4294L93.8104 11.364H82.8016Z" fill="white"/>
<path d="M113.221 5.96074C114.437 5.96074 115.435 6.36611 116.216 7.17685C117.006 7.97746 117.402 8.99089 117.402 10.2171C117.402 11.4332 117.006 12.4467 116.216 13.2574C115.435 14.0682 114.437 14.4735 113.221 14.4735C112.4 14.4735 111.66 14.2708 111.002 13.8655C110.343 13.4601 109.841 12.9078 109.497 12.2085L109.421 14.3215H109.01V3.20929H109.497V8.21055C109.841 7.51128 110.343 6.96403 111.002 6.5688C111.66 6.16343 112.4 5.96074 113.221 5.96074ZM113.206 14.0023C114.27 14.0023 115.152 13.6476 115.851 12.9382C116.55 12.2186 116.9 11.3116 116.9 10.2171C116.9 9.12263 116.55 8.22068 115.851 7.51128C115.152 6.79175 114.27 6.43198 113.206 6.43198C112.142 6.43198 111.255 6.79175 110.546 7.51128C109.836 8.23082 109.482 9.13277 109.482 10.2171C109.482 11.2914 109.836 12.1933 110.546 12.923C111.255 13.6425 112.142 14.0023 113.206 14.0023Z" fill="white"/>
<path d="M125.8 6.11275H126.317L122.136 15.0512C121.751 15.8822 121.351 16.4497 120.936 16.7537C120.53 17.0679 119.993 17.225 119.324 17.225H118.686V16.7689H119.294C119.871 16.7689 120.327 16.6423 120.662 16.3889C121.006 16.1457 121.351 15.6542 121.696 14.9144L122.197 13.8655L118.351 6.11275H118.899L122.456 13.3182L125.8 6.11275Z" fill="white"/>
</svg>
