<svg width="139" height="51" viewBox="0 0 139 51" fill="none" xmlns="http://www.w3.org/2000/svg">
<path d="M11.2108 5.96074C12.4269 5.96074 13.4251 6.36611 14.2055 7.17685C14.9959 7.97746 15.3912 8.99089 15.3912 10.2171C15.3912 11.4332 14.9959 12.4467 14.2055 13.2574C13.4251 14.0682 12.4269 14.4735 11.2108 14.4735C10.3899 14.4735 9.65011 14.2708 8.99138 13.8655C8.33266 13.4601 7.83101 12.9078 7.48644 12.2085L7.41044 14.3215H7V3.20929H7.48644V8.21055C7.83101 7.51128 8.33266 6.96403 8.99138 6.5688C9.65011 6.16343 10.3899 5.96074 11.2108 5.96074ZM11.1956 14.0023C12.2597 14.0023 13.1414 13.6476 13.8406 12.9382C14.5399 12.2186 14.8895 11.3116 14.8895 10.2171C14.8895 9.12263 14.5399 8.22068 13.8406 7.51128C13.1414 6.79175 12.2597 6.43198 11.1956 6.43198C10.1315 6.43198 9.24474 6.79175 8.53534 7.51128C7.82594 8.23082 7.47124 9.13277 7.47124 10.2171C7.47124 11.2914 7.82594 12.1933 8.53534 12.923C9.24474 13.6425 10.1315 14.0023 11.1956 14.0023Z" fill="white"/>
<path d="M23.4809 13.5006C22.8627 14.1492 22.0216 14.4735 20.9575 14.4735C19.9035 14.4735 19.0624 14.1492 18.4341 13.5006C17.8159 12.852 17.5068 11.9805 17.5068 10.886V6.11275H17.9932V10.8252C17.9932 11.8082 18.2567 12.5835 18.7837 13.151C19.3208 13.7185 20.0454 14.0023 20.9575 14.0023C21.8797 14.0023 22.6043 13.7185 23.1313 13.151C23.6684 12.5835 23.937 11.8082 23.937 10.8252V6.11275H24.4234V10.886C24.4234 11.9805 24.1092 12.852 23.4809 13.5006Z" fill="white"/>
<path d="M27.1423 4.28859V3.43731H27.8568V4.28859H27.1423ZM27.2487 14.3215V6.11275H27.7352V14.3215H27.2487Z" fill="white"/>
<path d="M30.7225 14.3215V3.20929H31.2089V14.3215H30.7225Z" fill="white"/>
<path d="M37.2669 13.8655H38.3006V14.3215H37.2213C36.4612 14.3215 35.8633 14.1036 35.4276 13.6678C34.9918 13.2219 34.7739 12.6088 34.7739 11.8285V6.5536H32.8737V6.12796H34.7739V3.69573H35.2603V6.12796H38.2398V6.5536H35.2603V11.8133C35.2603 12.4619 35.4326 12.9686 35.7772 13.3334C36.1319 13.6881 36.6285 13.8655 37.2669 13.8655Z" fill="white"/>
<path d="M54.513 6.11275H55.0147L52.1112 14.3215H51.7312L48.9341 7.32887L46.1523 14.3215H45.7722L42.96 6.11275H43.4616L45.985 13.4702L48.8277 6.38638H49.0405L51.8984 13.4854L54.513 6.11275Z" fill="white"/>
<path d="M56.788 4.28859V3.43731H57.5025V4.28859H56.788ZM56.8944 14.3215V6.11275H57.3808V14.3215H56.8944Z" fill="white"/>
<path d="M63.4388 13.8655H64.4725V14.3215H63.3932C62.6332 14.3215 62.0352 14.1036 61.5995 13.6678C61.1637 13.2219 60.9458 12.6088 60.9458 11.8285V6.5536H59.0456V6.12796H60.9458V3.69573H61.4323V6.12796H64.4117V6.5536H61.4323V11.8133C61.4323 12.4619 61.6045 12.9686 61.9491 13.3334C62.3038 13.6881 62.8004 13.8655 63.4388 13.8655Z" fill="white"/>
<path d="M69.8814 5.96074C70.8644 5.96074 71.6447 6.2749 72.2224 6.90323C72.8 7.53155 73.0889 8.38283 73.0889 9.45706V14.3215H72.6024V9.54827C72.6024 8.56525 72.3541 7.80011 71.8576 7.25286C71.361 6.69548 70.6719 6.41678 69.7902 6.41678C68.949 6.41678 68.2194 6.72588 67.6012 7.34407C66.983 7.96226 66.6739 8.69699 66.6739 9.54827V14.3215H66.1874V3.20929H66.6739V7.96732C66.9678 7.3694 67.4036 6.88803 67.9812 6.52319C68.5589 6.14823 69.1923 5.96074 69.8814 5.96074Z" fill="white"/>
<path fill-rule="evenodd" clip-rule="evenodd" d="M89.6774 0.0659608C89.6096 -0.00725069 89.499 -0.0212654 89.415 0.0327071L83.5775 3.78532C83.5185 3.82321 83.4829 3.88846 83.4829 3.95853V9.99062C83.4829 10.0411 83.5014 10.0898 83.535 10.1275L88.7609 16.0019C88.7705 16.0127 88.7811 16.0224 88.7927 16.0309L94.1331 19.96C94.2056 20.0133 94.3044 20.0134 94.377 19.9601L99.7108 16.0451C99.7226 16.0364 99.7335 16.0264 99.7432 16.0154L104.988 10.0799C105.022 10.0422 105.04 9.99373 105.04 9.9435V4.06972C105.04 3.99972 105.004 3.93452 104.946 3.89661L99.0333 0.0883209C98.9493 0.034186 98.8385 0.0482397 98.7706 0.121645L94.255 5.00598L89.6774 0.0659608ZM83.8947 4.64759V9.82945L87.9543 10.8323L83.8947 4.64759ZM84.2839 10.3498L88.6421 15.2488L88.2249 11.3234L84.2839 10.3498ZM89.1098 15.753L93.4148 18.9202L88.7066 11.9586L89.1098 15.753ZM95.1164 18.9065L99.3957 15.7655L99.8641 12.012L95.1164 18.9065ZM99.8758 15.2435L104.226 10.3208L100.36 11.3634L99.8758 15.2435ZM104.628 9.78574V4.76099L100.641 10.8612L104.628 9.78574ZM104.548 4.13055L99.1757 0.669911L100.312 10.6106L104.548 4.13055ZM98.7682 0.730884L94.5415 5.30264L99.8962 10.5952L98.7682 0.730884ZM93.9695 5.3038L89.6852 0.680245L88.6778 10.603L93.9695 5.3038ZM89.2784 0.610119L83.975 4.01936L88.2682 10.5601L89.2784 0.610119ZM94.2561 5.59956L99.6716 10.9522H88.9111L94.2561 5.59956ZM88.8016 11.364L94.2563 19.4294L99.8103 11.364H88.8016Z" fill="white"/>
<path d="M119.221 5.96074C120.437 5.96074 121.435 6.36611 122.216 7.17685C123.006 7.97746 123.402 8.99089 123.402 10.2171C123.402 11.4332 123.006 12.4467 122.216 13.2574C121.435 14.0682 120.437 14.4735 119.221 14.4735C118.4 14.4735 117.66 14.2708 117.002 13.8655C116.343 13.4601 115.841 12.9078 115.497 12.2085L115.421 14.3215H115.01V3.20929H115.497V8.21055C115.841 7.51128 116.343 6.96403 117.002 6.5688C117.66 6.16343 118.4 5.96074 119.221 5.96074ZM119.206 14.0023C120.27 14.0023 121.152 13.6476 121.851 12.9382C122.55 12.2186 122.9 11.3116 122.9 10.2171C122.9 9.12263 122.55 8.22068 121.851 7.51128C121.152 6.79175 120.27 6.43198 119.206 6.43198C118.142 6.43198 117.255 6.79175 116.546 7.51128C115.836 8.23082 115.482 9.13277 115.482 10.2171C115.482 11.2914 115.836 12.1933 116.546 12.923C117.255 13.6425 118.142 14.0023 119.206 14.0023Z" fill="white"/>
<path d="M131.8 6.11275H132.317L128.136 15.0512C127.751 15.8822 127.351 16.4497 126.936 16.7537C126.53 17.0679 125.993 17.225 125.324 17.225H124.686V16.7689H125.294C125.871 16.7689 126.327 16.6423 126.662 16.3889C127.006 16.1457 127.351 15.6542 127.696 14.9144L128.197 13.8655L124.351 6.11275H124.899L128.456 13.3182L131.8 6.11275Z" fill="white"/>
<path d="M132.424 48.4807C132.373 48.6679 132.337 48.8616 132.271 49.0438C132.041 49.6509 131.593 50.1507 131.015 50.4458C130.396 50.7686 129.713 50.9476 129.016 50.9695C127.871 51.0552 126.725 50.821 125.706 50.2932C125.296 50.095 124.933 49.8111 124.642 49.4608L125.039 48.8304C125.125 48.8944 125.179 48.9289 125.228 48.97C126.638 50.1438 128.249 50.3982 129.989 49.9747C130.279 49.8936 130.553 49.7643 130.8 49.5922C131.77 48.9535 131.89 47.32 130.665 46.6371C130.05 46.2956 129.375 46.1364 128.705 45.9558C128.113 45.7916 127.518 45.6274 126.932 45.4485C126.697 45.3671 126.47 45.2649 126.253 45.1431C124.471 44.2172 124.634 41.8466 125.868 40.8583C126.387 40.4513 127.003 40.1869 127.655 40.0916C128.916 39.864 130.218 40.047 131.368 40.6137C131.532 40.6925 131.696 40.791 131.846 40.8862C131.904 40.9276 131.959 40.9738 132.01 41.0241L131.682 41.7186L131.321 41.5134C130.731 41.1692 130.079 40.9465 129.402 40.8582C128.726 40.77 128.038 40.818 127.38 40.9995C127.024 41.0942 126.695 41.2713 126.42 41.5166C125.667 42.1733 125.484 43.6985 126.717 44.3945C127.353 44.7524 128.057 44.9067 128.751 45.0988C129.369 45.263 129.992 45.4272 130.592 45.6488C130.957 45.7907 131.301 45.9847 131.611 46.225C131.817 46.3678 131.989 46.5531 132.117 46.7684C132.245 46.9836 132.325 47.2238 132.352 47.4727C132.368 47.5473 132.392 47.6199 132.424 47.6894V48.4807Z" fill="white"/>
<path d="M51.0562 41.8762V50.8776H50.1992V40.1524C50.7114 39.9882 50.8707 40.0309 51.1744 40.4233L57.7084 48.837C57.7926 48.9541 57.9013 49.0515 58.0269 49.1226C58.0269 48.7549 58.0268 48.3855 58.0367 48.0178C58.0465 47.65 58.0367 47.2577 58.0367 46.8768V40.1064H58.8477C58.9331 40.3871 58.9577 50.3851 58.8723 50.8776C58.7788 50.8875 58.677 50.8924 58.5785 50.9088C58.2994 50.9515 58.1221 50.8267 57.9563 50.6051C57.4227 49.8926 56.8678 49.1949 56.3146 48.4922C54.6575 46.3613 53 44.2309 51.3419 42.1011C51.2729 42.0141 51.1957 41.9369 51.1219 41.8515L51.0562 41.8762Z" fill="white"/>
<path d="M84.0856 45.4978C84.0856 42.7496 85.9128 40.5513 88.6232 40.0949C90.1681 39.8356 91.639 40.0949 92.936 40.9962C94.6565 42.1996 95.3772 43.9119 95.213 45.9607C95.039 48.1426 93.9144 49.7104 91.8722 50.5575C90.9214 50.9502 89.8814 51.0757 88.8646 50.9203C87.0144 50.6593 85.6074 49.7531 84.7111 48.1032C84.2941 47.2984 84.0794 46.4041 84.0856 45.4978V45.4978ZM94.3216 45.5109C94.3314 42.8645 92.3515 40.8616 89.7248 40.8501C87.0029 40.837 84.9951 42.7791 84.9819 45.4469C84.9672 48.1426 86.9356 50.1372 89.6148 50.1438C92.3286 50.1454 94.3117 48.1918 94.3216 45.5109V45.5109Z" fill="white"/>
<path d="M73.0649 45.4288C73.0797 48.2197 71.2492 50.4393 68.5371 50.8891C66.6656 51.1994 64.9565 50.789 63.5529 49.4576C62.2921 48.2608 61.7996 46.7422 61.9325 45.0398C62.0786 43.1682 62.9487 41.7022 64.5954 40.7533C66.6261 39.5811 69.3891 39.7962 71.1622 41.2934C71.697 41.7389 72.1377 42.2866 72.4582 42.9046C72.7787 43.5225 72.9727 44.1982 73.0288 44.892C73.0468 45.0874 73.055 45.2827 73.0649 45.4288ZM67.4831 50.1372C68.4194 50.1504 69.3388 49.8871 70.1262 49.3804C71.8024 48.2788 72.5494 46.1381 71.9617 44.1155C71.2426 41.6431 68.7916 40.4381 66.3799 40.9667C63.7532 41.5446 62.4103 43.994 62.8946 46.4533C63.3395 48.6925 65.1617 50.1372 67.4815 50.1372H67.4831Z" fill="white"/>
<path d="M37.5122 40.1015H38.3331C38.3593 40.5136 38.3429 40.9223 38.3462 41.3147C38.3495 41.7071 38.3462 42.1356 38.3462 42.5345V44.9954H45.2922V40.154C45.591 40.0293 45.8619 40.0884 46.1262 40.0982C46.2198 40.3888 46.2411 50.4278 46.1459 50.8792H45.3103V45.8277H38.3479V50.8776H37.5073C37.4187 50.5312 37.4219 40.438 37.5122 40.1015Z" fill="white"/>
<path d="M22.8929 40.1245V40.8912C22.3741 40.9339 21.8553 40.906 21.3365 40.9109C20.8178 40.9158 20.2875 40.9109 19.7621 40.9109H16.6298V44.9971H22.2116V45.7884H16.6019C16.592 47.215 16.6019 48.6088 16.6019 50.0568C17.05 50.0847 17.4785 50.0666 17.9054 50.0699C18.3322 50.0732 18.7722 50.0699 19.2056 50.0699H23.1178V50.876H15.7646C15.6858 50.5723 15.6694 40.5727 15.7433 40.1491C16.0125 40.0703 22.2854 40.0375 22.8929 40.1245Z" fill="white"/>
<path d="M122.621 50.0732V50.8792H115.243C115.224 50.7706 115.211 50.661 115.204 50.5509C115.204 47.169 115.204 43.7876 115.204 40.4068C115.208 40.32 115.217 40.2334 115.23 40.1475C115.532 40.0637 121.887 40.044 122.383 40.1245V40.901C121.974 40.901 121.562 40.9108 121.147 40.9125C120.732 40.9141 120.306 40.9125 119.886 40.9125H116.128V45.0036H121.722V45.7949H116.14V50.0633L122.621 50.0732Z" fill="white"/>
<path d="M105.769 45.5027H106.608C106.608 45.6488 106.628 45.7768 106.628 45.9049C106.628 47.0179 106.628 48.131 106.628 49.2457C106.634 49.3553 106.612 49.4645 106.564 49.5634C106.517 49.6623 106.446 49.7478 106.357 49.8121C105.632 50.3824 104.772 50.7551 103.86 50.894C102.704 51.1115 101.509 50.9807 100.427 50.5181C98.4768 49.666 97.4047 48.1507 97.1946 46.0444C97.0435 44.5193 97.4146 43.1271 98.4094 41.9402C99.3272 40.8452 100.529 40.2607 101.934 40.0686C103.017 39.9103 104.123 40.0459 105.135 40.461C105.722 40.6962 106.248 41.0604 106.675 41.5265L106.145 42.1093C106.05 42.0387 105.973 41.9911 105.905 41.9303C105.099 41.203 104.132 40.896 103.064 40.8501C102.328 40.8065 101.592 40.9259 100.908 41.1998C99.296 41.8712 98.3356 43.0844 98.1057 44.8115C97.8759 46.5386 98.4029 48.0555 99.8164 49.1669C100.893 50.014 102.149 50.257 103.489 50.1126C104.183 50.0415 104.851 49.8106 105.441 49.4378C105.549 49.3811 105.638 49.2936 105.696 49.1864C105.755 49.0791 105.78 48.957 105.769 48.8353C105.753 47.8798 105.769 46.9227 105.769 45.9656V45.5027Z" fill="white"/>
<path d="M34.0055 48.8879L34.5423 49.3804C33.6739 50.6018 31.3065 51.3882 29.0738 50.7594C26.9298 50.1569 25.2125 48.31 25.1633 45.6045C25.119 43.1781 26.4766 41.1259 28.757 40.3314C30.9782 39.5598 33.4916 40.2214 34.5374 41.5807C34.4553 41.6726 34.3732 41.7662 34.2862 41.8631C34.1992 41.9599 34.1418 42.0469 34.0416 42.1733C32.7988 40.9749 31.3492 40.6482 29.7535 40.9454C28.6818 41.133 27.7177 41.7115 27.048 42.569C25.6377 44.3355 25.7494 47.0016 27.2548 48.6843C28.6141 50.198 31.8466 50.9335 34.0055 48.8879Z" fill="white"/>
<path d="M8.81367 40.9092H5V40.1508C5.2873 40.067 12.9918 40.0457 13.4745 40.1278V40.9207H9.68378V50.876H8.81367V40.9092Z" fill="white"/>
<path d="M76.1234 40.1015H76.9442C76.9705 40.7746 76.9541 41.4378 76.9574 42.0995C76.9606 42.7611 76.9574 43.4128 76.9574 44.0695V50.0781H83.0185V50.8497C82.7263 50.9285 76.5059 50.9433 76.1119 50.8661C76.0232 50.5296 76.0249 40.4413 76.1234 40.1015Z" fill="white"/>
<path d="M111.19 50.8842H110.335C110.3 49.0914 110.323 47.302 110.32 45.5158C110.317 43.7296 110.32 41.9336 110.32 40.1113H111.192L111.19 50.8842Z" fill="white"/>
<path d="M94.7426 24.1116C94.8755 24.1017 94.9773 24.087 95.0791 24.087C96.4056 24.087 97.7304 24.0755 99.0569 24.087C99.9917 24.0808 100.915 24.2886 101.758 24.6944C103.544 25.5891 104.479 27.0584 104.639 29.0252C104.742 30.3008 104.493 31.5058 103.764 32.5795C102.956 33.7681 101.808 34.4609 100.418 34.7449C99.9032 34.8431 99.3807 34.8948 98.8567 34.8992C97.6221 34.9205 96.3941 34.8992 95.1546 34.8992C95.0266 34.8992 94.8985 34.8877 94.7426 34.8811V24.1116ZM95.6192 34.0455C95.7292 34.057 95.8179 34.0751 95.9065 34.0751C96.9818 34.0751 98.0571 34.0751 99.1325 34.0751C99.4466 34.0741 99.7599 34.0433 100.068 33.9831C101.83 33.6269 103.056 32.6501 103.585 30.8934C103.75 30.3397 103.811 29.7604 103.765 29.1844C103.662 27.7956 103.125 26.6316 101.959 25.8058C101.195 25.2638 100.286 24.964 99.3492 24.9456C98.1819 24.9127 97.0147 24.9324 95.8474 24.9308C95.7697 24.9362 95.6923 24.9466 95.6159 24.962L95.6192 34.0455Z" fill="white"/>
<path d="M136.085 31.1463L138.738 34.9091C138.423 34.9236 138.106 34.9192 137.791 34.8959C137.691 34.8828 137.594 34.7318 137.522 34.6349C136.829 33.6641 136.139 32.6917 135.452 31.7176C135.37 31.601 135.288 31.4861 135.224 31.404H131.205V34.8943H130.384C130.305 34.5939 130.275 24.8274 130.349 24.1313C130.444 24.112 130.54 24.0988 130.637 24.0919C131.87 24.0919 133.099 24.0788 134.337 24.0919C135.087 24.0871 135.83 24.2403 136.517 24.5417C137.785 25.1245 138.433 26.1325 138.5 27.505C138.52 27.9233 138.484 28.3424 138.392 28.751C138.152 29.7886 137.502 30.5093 136.539 30.9526C136.414 31.0117 136.281 31.0642 136.085 31.1463ZM131.226 30.575C131.294 30.5869 131.364 30.5951 131.433 30.5996C132.443 30.5996 133.454 30.6111 134.463 30.5996C135.003 30.5929 135.537 30.4814 136.035 30.2713C136.823 29.9429 137.348 29.365 137.512 28.5146C137.583 28.1293 137.603 27.7363 137.571 27.3457C137.553 26.8898 137.402 26.4491 137.137 26.0775C136.872 25.7058 136.505 25.4192 136.081 25.2526C135.624 25.0465 135.131 24.9348 134.631 24.9242C133.582 24.9095 132.531 24.9127 131.482 24.9127C131.396 24.9198 131.31 24.934 131.226 24.9554V30.575Z" fill="white"/>
<path d="M91.3788 24.1116V24.8947H85.0943C85.0829 26.2737 85.0943 27.615 85.0943 28.9989H90.7024V29.8001H85.1206V34.0685H91.6103V34.8335C91.3377 34.9156 84.8153 34.9452 84.2653 34.8664C84.175 34.5692 84.1668 24.481 84.2653 24.1034L91.3788 24.1116Z" fill="white"/>
<path d="M120.67 24.9045V29.0088H126.281V29.7935C125.813 29.8132 125.345 29.7935 124.878 29.8017C124.41 29.8099 123.958 29.8017 123.499 29.8017H120.678V34.057H127.132C127.232 34.3509 127.186 34.6021 127.174 34.8779H119.838C119.749 34.5873 119.733 24.5352 119.823 24.1034H126.944V24.8963L120.67 24.9045Z" fill="white"/>
<path d="M116.134 25.5284L115.589 26.1129C115.487 26.0324 115.405 25.9733 115.329 25.9076C114.523 25.205 113.57 24.898 112.516 24.8537C111.858 24.814 111.2 24.9055 110.578 25.1229C108.805 25.7796 107.771 27.0453 107.544 28.9251C107.359 30.4634 107.807 31.8046 108.935 32.8849C109.766 33.6662 110.856 34.1129 111.997 34.1391C112.627 34.1846 113.26 34.1054 113.86 33.906C114.179 33.7927 114.481 33.6302 114.789 33.4907C115.098 33.3511 115.226 33.1131 115.214 32.7453C115.185 31.803 115.203 30.859 115.205 29.9167C115.205 29.7886 115.216 29.6606 115.224 29.5112H116.045C116.055 29.6261 116.073 29.7262 116.073 29.8264C116.073 30.9756 116.073 32.133 116.073 33.2854C116.077 33.3807 116.057 33.4754 116.015 33.5613C115.974 33.6471 115.912 33.7215 115.835 33.7779C115.12 34.3606 114.262 34.7414 113.35 34.8812C112.142 35.1139 110.891 34.9689 109.769 34.4658C108.012 33.6647 106.986 32.2889 106.686 30.3878C106.428 28.9771 106.741 27.5219 107.554 26.341C108.485 24.9866 109.81 24.2741 111.429 24.0591C112.499 23.9096 113.591 24.0473 114.591 24.458C115.176 24.6989 115.703 25.0641 116.134 25.5284V25.5284Z" fill="white"/>
<path d="M74.9486 24.1067H75.7695V34.057C75.9451 34.057 76.083 34.0751 76.2209 34.0751C77.9403 34.0751 79.6597 34.0751 81.3791 34.0751H81.8569V34.8845H74.9617L74.9322 34.8516C74.9322 34.8418 74.9092 34.8303 74.9092 34.8204C74.8948 34.7302 74.8861 34.6392 74.8829 34.5479C74.8829 31.1168 74.8829 27.6856 74.8829 24.2544C74.8981 24.2025 74.9202 24.1528 74.9486 24.1067V24.1067Z" fill="white"/>
<path d="M0 34.9091V24.1133C0.136261 24.1034 0.25118 24.087 0.364458 24.087C1.66468 24.087 2.96327 24.0755 4.2635 24.087C5.39778 24.0708 6.51439 24.3691 7.48943 24.9489C8.83399 25.7796 9.59574 26.9994 9.85512 28.5409C10.0285 29.5146 9.94016 30.5168 9.59902 31.4451C8.91771 33.2855 7.55346 34.346 5.65894 34.7482C5.14465 34.8492 4.6218 34.9004 4.09768 34.9009C2.87626 34.9222 1.65483 34.9009 0.435049 34.9009L0 34.9091ZM0.899648 24.9374V34.0406C0.942792 34.0556 0.987351 34.066 1.03263 34.0718C2.28032 34.0718 3.52801 34.1063 4.77242 34.0472C5.84665 34.0101 6.87119 33.5856 7.65689 32.8521C8.64191 31.9376 9.04577 30.7769 9.02771 29.4603C9.00308 27.6544 8.2479 26.2541 6.58814 25.425C5.90129 25.0922 5.1465 24.9236 4.38334 24.9325C3.33265 24.9325 2.28251 24.9325 1.23291 24.9325C1.13113 24.921 1.0277 24.9309 0.899648 24.9374V24.9374Z" fill="white"/>
<path d="M40.6469 34.9091C40.3886 34.9218 40.1298 34.9179 39.872 34.8976C39.7533 34.8575 39.6527 34.7767 39.588 34.6695C39.1414 34.0538 38.7064 33.4316 38.2746 32.8111L37.2699 31.3959H33.2674V34.8336C32.9686 34.9682 32.6977 34.8977 32.4466 34.896L32.4072 34.855C32.4072 34.8451 32.3875 34.8353 32.3858 34.8238C32.3708 34.7336 32.3615 34.6426 32.3579 34.5513C32.3579 31.1201 32.3579 27.6879 32.3579 24.2545C32.3672 24.2062 32.3827 24.1593 32.4039 24.115C32.5089 24.1051 32.6222 24.0871 32.7322 24.0871C33.9142 24.0871 35.0963 24.0871 36.2766 24.0871C37.0131 24.0778 37.7443 24.2128 38.4289 24.4843C39.9278 25.1098 40.6042 26.3493 40.5451 27.9171C40.4876 29.4472 39.7423 30.5077 38.3009 31.0643C38.2651 31.0791 38.2305 31.0967 38.1974 31.1168C38.1859 31.1168 38.181 31.1365 38.1449 31.1874L40.7043 34.7991L40.6469 34.9091ZM33.2756 30.6013H35.9549C36.1765 30.6013 36.4014 30.6112 36.623 30.5915C37.1075 30.5629 37.5847 30.4605 38.0382 30.2878C38.8328 29.9594 39.3614 29.3947 39.5469 28.5558C39.6242 28.1973 39.6519 27.83 39.629 27.464C39.5584 26.3017 38.9346 25.5038 37.8231 25.1542C37.4374 25.0293 37.0364 24.9575 36.6312 24.9407C35.5953 24.9095 34.5594 24.9243 33.5219 24.9227C33.4464 24.9227 33.3708 24.9342 33.2773 24.9407L33.2756 30.6013Z" fill="white"/>
<path d="M42.676 29.7525C42.6612 26.7696 44.4819 24.5451 47.2038 24.1084C49.4529 23.7472 51.4115 24.3628 52.802 26.2426C54.9149 29.1057 53.8396 34.0521 49.3035 34.8894C48.1485 35.1176 46.951 34.9787 45.879 34.4921C43.7513 33.5268 42.7614 31.803 42.676 29.7525ZM52.9169 29.5325C52.9383 26.9058 50.9731 24.8915 48.3825 24.8504C45.572 24.8044 43.6101 26.8598 43.5756 29.4242C43.5412 31.9885 45.4176 34.0702 48.1166 34.1424C50.8418 34.2163 52.9169 32.2019 52.9169 29.5325Z" fill="white"/>
<path d="M13.8149 24.9079V29.0122H19.4066V29.8034H13.8675C13.7772 30.1187 13.7476 33.2362 13.8215 34.0719C14.2401 34.0965 14.6686 34.0801 15.0954 34.0834C15.5223 34.0866 15.9623 34.0834 16.3957 34.0834H20.3095V34.8533C20.0107 34.9321 13.37 34.9485 12.9547 34.8763C12.866 34.548 12.8677 24.4482 12.9547 24.1232H20.0829V24.9161L13.8149 24.9079Z" fill="white"/>
<path d="M68.3818 24.1428V24.9161C67.1242 24.9259 65.8847 24.9161 64.5894 24.9161V34.8812H63.7177C63.6791 34.4687 63.6693 34.054 63.6881 33.6401C63.6799 33.2346 63.6881 32.8291 63.6881 32.4219V24.9226H59.9122V24.1527C60.1979 24.0739 67.9549 24.0542 68.3818 24.1428Z" fill="white"/>
<path d="M26.3772 34.8894H25.5006C25.4661 34.3411 25.4874 33.796 25.4842 33.2477C25.4809 32.6994 25.4842 32.1461 25.4842 31.5961V24.9226H21.7083V24.151C22.0054 24.0673 29.7739 24.0558 30.1761 24.151V24.9226C28.9235 24.9374 27.684 24.9226 26.3871 24.9325L26.3772 34.8894Z" fill="white"/>
<path d="M56.7996 34.8763V24.1166H57.6204C57.6976 24.4072 57.7288 34.1835 57.6565 34.8336C57.3906 34.9288 57.2954 34.9337 56.7996 34.8763Z" fill="white"/>
</svg>
