<svg width="87" height="28" viewBox="0 0 87 28" fill="none" xmlns="http://www.w3.org/2000/svg">
<g clip-path="url(#clip0_309_6574)">
<path d="M9.27479 27.4944H12.0975V24.9649H9.45809C7.25851 24.9649 6.48869 23.7551 6.48869 21.7022V10.8878H12.3542V8.43158H6.48869V2.89606H3.77591V7.47846C3.77591 8.10167 3.37265 8.43158 2.85942 8.43158H0V10.8878H3.59261V21.7389C3.59261 25.5881 5.75551 27.4944 9.27479 27.4944Z" fill="white"/>
<path d="M25.5421 27.971C30.0145 27.971 33.3505 25.4415 34.4136 21.8855H31.4076C30.5278 24.1217 28.1082 25.3315 25.5788 25.3315C21.6562 25.3315 19.2001 22.802 19.0534 18.9894H34.5969V17.7064C34.5969 12.2075 31.151 7.95502 25.3588 7.95502C20.1532 7.95502 16.0107 11.8775 16.0107 17.963C16.0107 23.6818 19.7133 27.971 25.5421 27.971ZM19.1268 16.4233C19.42 12.904 22.1695 10.5945 25.3588 10.5945C28.5848 10.5945 31.2609 12.6108 31.5176 16.4233H19.1268Z" fill="white"/>
<path d="M42.4115 27.4944H43.8045V24.9283H42.9246C42.0083 24.9283 41.5316 24.3784 41.5316 23.4252V0H38.6357V23.4252C38.6357 26.028 40.0287 27.4944 42.4115 27.4944Z" fill="white"/>
<path d="M78.4492 27.971C82.8848 27.971 85.8542 25.5514 85.8542 21.9588C85.8542 14.0771 74.4165 18.1096 74.4165 13.2706C74.4165 11.621 75.9562 10.4479 78.339 10.4479C80.8684 10.4479 82.225 11.6576 82.4816 13.4539H85.2676C84.9743 10.0079 82.0416 7.95502 78.5224 7.95502C74.5264 7.95502 71.6305 10.0446 71.6305 13.2706C71.6305 20.8224 83.0314 16.7532 83.0314 22.1055C83.0314 24.0484 81.455 25.4415 78.5955 25.4415C75.8095 25.4415 74.1967 24.2317 73.8667 21.9588H71.0439C71.374 25.5148 73.9398 27.971 78.4492 27.971Z" fill="white"/>
<path d="M57.0114 27.924C62.5961 27.924 67.1234 23.3967 67.1234 17.812C67.1234 12.2273 62.5961 7.70001 57.0114 7.70001C51.4267 7.70001 46.8994 12.2273 46.8994 17.812C46.8994 23.3967 51.4267 27.924 57.0114 27.924Z" fill="url(#paint0_linear_309_6574)"/>
<g filter="url(#filter0_i_309_6574)">
<path d="M57.0114 27.924C62.5961 27.924 67.1234 23.3967 67.1234 17.812C67.1234 12.2273 62.5961 7.70001 57.0114 7.70001C51.4267 7.70001 46.8994 12.2273 46.8994 17.812C46.8994 23.3967 51.4267 27.924 57.0114 27.924Z" fill="url(#paint1_linear_309_6574)"/>
</g>
<path d="M57.0116 27.7162C62.4815 27.7162 66.9158 23.2819 66.9158 17.812C66.9158 12.342 62.4815 7.90778 57.0116 7.90778C51.5417 7.90778 47.1074 12.342 47.1074 17.812C47.1074 23.2819 51.5417 27.7162 57.0116 27.7162Z" stroke="url(#paint2_linear_309_6574)" stroke-opacity="0.12" stroke-width="1.1875"/>
</g>
<defs>
<filter id="filter0_i_309_6574" x="37.3994" y="7.70001" width="29.7236" height="20.224" filterUnits="userSpaceOnUse" color-interpolation-filters="sRGB">
<feFlood flood-opacity="0" result="BackgroundImageFix"/>
<feBlend mode="normal" in="SourceGraphic" in2="BackgroundImageFix" result="shape"/>
<feColorMatrix in="SourceAlpha" type="matrix" values="0 0 0 0 0 0 0 0 0 0 0 0 0 0 0 0 0 0 127 0" result="hardAlpha"/>
<feOffset dx="-14.25"/>
<feGaussianBlur stdDeviation="4.75"/>
<feComposite in2="hardAlpha" operator="arithmetic" k2="-1" k3="1"/>
<feColorMatrix type="matrix" values="0 0 0 0 0.682353 0 0 0 0 0.45098 0 0 0 0 0.980392 0 0 0 0.56 0"/>
<feBlend mode="normal" in2="shape" result="effect1_innerShadow_309_6574"/>
</filter>
<linearGradient id="paint0_linear_309_6574" x1="57.0114" y1="7.70001" x2="57.0114" y2="27.924" gradientUnits="userSpaceOnUse">
<stop stop-color="#130C3F"/>
<stop offset="1" stop-color="#15197B"/>
</linearGradient>
<linearGradient id="paint1_linear_309_6574" x1="46.8996" y1="17.812" x2="67.1236" y2="17.812" gradientUnits="userSpaceOnUse">
<stop stop-color="#AE73FA"/>
<stop offset="1" stop-color="#AE73FA" stop-opacity="0"/>
</linearGradient>
<linearGradient id="paint2_linear_309_6574" x1="67.1238" y1="17.812" x2="46.8998" y2="17.812" gradientUnits="userSpaceOnUse">
<stop stop-color="#AE73FA"/>
<stop offset="1" stop-color="#AE73FA" stop-opacity="0"/>
</linearGradient>
<clipPath id="clip0_309_6574">
<rect width="86.1" height="28" fill="white"/>
</clipPath>
</defs>
</svg>
